<svg id="Layer_1" data-name="Layer 1" xmlns="http://www.w3.org/2000/svg" viewBox="0 0 489.96 107.18"><text transform="translate(9.15 69.4)" style="font-size:50.3577995300293px;fill:#0073a8;font-family:Poppins-Bold, Poppins;font-weight:700;letter-spacing:0.010006518448041226em">Experts <tspan x="206.87" y="0" style="letter-spacing:-0.09999731080876859em"> </tspan><tspan x="212.51" y="0" style="fill:#222">Mechanic</tspan></text><path d="M203.64,82.49c-.26.24-.51.5-.76.77a13.62,13.62,0,0,0-3.38,9.14,11.65,11.65,0,0,0,5.12,9.61,18.62,18.62,0,0,0,5.19,2.69l.13,0,0-.13c0-.09-3-8.57-3.74-11.32a8,8,0,0,1,5.18-4.41,10.33,10.33,0,0,1,7,.7L222,100.21l.08-.08c.09-.09,2.19-2.21,2.27-8.68A12.45,12.45,0,0,0,222,83.38a8.75,8.75,0,0,0-.82-.91c-2.16-2.1-5.44-3.19-9.72-3.25A11.89,11.89,0,0,0,203.64,82.49Z" style="fill:#222"/><path d="M209.38,103.81l-.44-.19c-.29-.13-.72-.32-1.25-.58s-1.17-.6-1.88-1a14.59,14.59,0,0,1-2.2-1.69,11.94,11.94,0,0,1-2.07-2.56,9.94,9.94,0,0,1-1.29-3.44,10.54,10.54,0,0,1-.15-1.95,14.91,14.91,0,0,1,.14-2,13.59,13.59,0,0,1,1.14-3.91,12.08,12.08,0,0,1,2.35-3.34l.18-.18.09-.09.1-.08.37-.33c.26-.22.52-.43.79-.62a14,14,0,0,1,1.69-1,11.07,11.07,0,0,1,3.57-1,8.77,8.77,0,0,1,.88,0c.29,0,.56,0,.84,0q.82,0,1.59.15a14.76,14.76,0,0,1,2.73.6,10.79,10.79,0,0,1,2,.84,9.51,9.51,0,0,1,1.16.75l.38.3,0,0-.39-.28a10.53,10.53,0,0,0-1.19-.67,12.82,12.82,0,0,0-2-.74l-.62-.16-.65-.13c-.45-.08-.93-.16-1.43-.21s-1-.09-1.56-.11h-.83a6.15,6.15,0,0,0-.84.06,10.82,10.82,0,0,0-3.41,1,11.88,11.88,0,0,0-1.64,1c-.26.18-.51.38-.77.57l-.37.33-.09.08-.09.08-.18.17a11.77,11.77,0,0,0-2.32,3.2,13.16,13.16,0,0,0-1.16,3.8,16.18,16.18,0,0,0-.16,2,10,10,0,0,0,.13,1.9,9.67,9.67,0,0,0,1.21,3.38,11.59,11.59,0,0,0,2,2.55,13.2,13.2,0,0,0,2.16,1.72c.69.44,1.32.78,1.85,1s.95.46,1.24.59l.44.2Z" style="fill:#fff"/><path d="M222.45,99.5l-.17-.42c-.1-.27-.26-.66-.43-1.13s-.37-1-.58-1.6c-.1-.29-.21-.6-.31-.91s-.22-.62-.32-.94-.21-.63-.31-.94l-.29-.91c-.19-.6-.36-1.15-.5-1.63s-.24-.88-.32-1.16-.12-.45-.12-.45l.17.43c.1.27.26.66.43,1.12s.37,1,.58,1.61l.32.9.31.94.31,1c.1.31.2.61.29.91.19.6.36,1.15.5,1.63s.24.88.32,1.16S222.45,99.5,222.45,99.5Z" style="fill:#fff"/><path d="M215.62,88l-.47,0-.53,0h-.7a13.05,13.05,0,0,0-1.73.18l-.95.21-.48.14c-.16.06-.32.11-.47.18a7.58,7.58,0,0,0-.92.41c-.28.17-.57.33-.83.51l-.19.13-.19.14-.35.27-.61.55q-.27.27-.48.51a4.86,4.86,0,0,0-.34.41l-.29.37.06-.1c0-.07.1-.18.18-.3s.18-.28.31-.45a6.22,6.22,0,0,1,.44-.55,8.24,8.24,0,0,1,.59-.6c.11-.1.22-.2.35-.3a3.65,3.65,0,0,1,.37-.29,8.17,8.17,0,0,1,.85-.54,8,8,0,0,1,.94-.44c.16-.07.33-.12.5-.18l.49-.14c.33-.08.66-.14,1-.19a9.2,9.2,0,0,1,1.77-.09,10,10,0,0,1,1.24.12l.34.07Z" style="fill:#fff"/><path d="M215.47,2.57c0,.08,2.71,7.82,3.41,10.34a7.36,7.36,0,0,1-4.72,4,9.48,9.48,0,0,1-6.44-.64l-3.27-9.72-.09.08c-.08.08-2,2-2.07,7.94,0,4.06,1.2,7.07,3.72,8.93a13.56,13.56,0,0,0,8,2.24,10.91,10.91,0,0,0,7.32-3.13A12.18,12.18,0,0,0,225,13.72a10.68,10.68,0,0,0-4.67-8.79,17,17,0,0,0-4.75-2.45l-.13,0Z" style="fill:#222"/><path d="M222.19,20.58l-.22.32a9.56,9.56,0,0,1-.68.87A3.08,3.08,0,0,1,221,22l-.14.15-.15.15c-.1.09-.2.2-.32.3l-.37.32a10.7,10.7,0,0,1-1.86,1.22,10.44,10.44,0,0,1-2.49.9,7.67,7.67,0,0,1-1.45.17c-.26,0-.5,0-.75,0s-.5,0-.76-.05c-.5,0-1-.1-1.54-.18s-1-.21-1.56-.35a10.41,10.41,0,0,1-3-1.35l-.34-.24-.32-.25a8,8,0,0,1-.6-.56,7.79,7.79,0,0,1-1-1.28,9.24,9.24,0,0,1-1.18-2.91,13.5,13.5,0,0,1-.32-2.91c0-.46,0-.91,0-1.35s.06-.85.12-1.26A17.19,17.19,0,0,1,204,8.78c.17-.44.31-.79.41-1l.15-.35h0l-.14.36c-.1.23-.24.58-.39,1a17.31,17.31,0,0,0-.87,3.78c-.05.4-.08.82-.1,1.25s0,.88,0,1.34a13.77,13.77,0,0,0,.37,2.86,8.7,8.7,0,0,0,1.19,2.8A7.39,7.39,0,0,0,206.88,23a10.21,10.21,0,0,0,2.88,1.24c.5.13,1,.23,1.52.31s1,.13,1.51.17l.73,0c.25,0,.5,0,.73,0a8.7,8.7,0,0,0,1.37-.15,10.57,10.57,0,0,0,2.42-.79,12,12,0,0,0,1.87-1.11l.37-.29.33-.29.16-.13.14-.13.27-.26a9.89,9.89,0,0,0,.73-.81l.24-.3Z" style="fill:#fff"/><path d="M219.58,12.71l-.55-1.5c-.16-.46-.34-1-.55-1.55l-.3-.88-.31-.9-.3-.91c-.1-.3-.2-.59-.29-.88-.18-.57-.35-1.11-.49-1.57s-.25-.85-.33-1.12L216.35,3l.17.41c.1.26.26.63.43,1.08s.37,1,.57,1.54c.1.28.21.57.31.87l.31.91.3.9c.1.3.19.6.29.89.17.57.33,1.11.46,1.58s.23.85.29,1.12.06.25.08.32Z" style="fill:#fff"/><path d="M208.5,17.4l.13,0,.37.09.57.12c.22,0,.47.08.75.11s.57.06.89.07.64,0,1,0,.7-.06,1.05-.11a9.7,9.7,0,0,0,1.07-.23,6.93,6.93,0,0,0,1-.35,9.32,9.32,0,0,0,1-.47,8.36,8.36,0,0,0,.82-.55,8.17,8.17,0,0,0,.68-.57l.53-.53.21-.24.17-.21.23-.3.08-.11-.07.12a3.65,3.65,0,0,1-.19.32l-.15.23-.19.25c-.07.1-.15.19-.23.29s-.18.19-.27.3l-.31.31c-.12.1-.23.21-.36.31a6.68,6.68,0,0,1-.82.6,8.87,8.87,0,0,1-1,.51,8.33,8.33,0,0,1-1.06.37,8.71,8.71,0,0,1-1.11.22L213,18l-.28,0-.53,0a8.43,8.43,0,0,1-1,0c-.32,0-.62-.08-.9-.12l-.39-.09-.36-.09c-.22-.06-.4-.11-.56-.17l-.36-.13Z" style="fill:#fff"/><path d="M221,22.86a10.81,10.81,0,0,1-7,2.83,13.74,13.74,0,0,1-7.82-2.12.71.71,0,0,0-.1-.14l-.12.07a16.36,16.36,0,0,1,2.74,8.94L208.47,52v.07l-.25,19.49a17.24,17.24,0,0,1-4.58,10.93,10.34,10.34,0,0,1-.75.75l.09.11a8.08,8.08,0,0,0,.76-.77c.12-.12.25-.27.38-.43a11.69,11.69,0,0,1,7.36-2.86c4,0,7.14,1,9.31,2.9l.31.37c.35.42.64.73.82.91l.13.13.09-.11-.12-.12c-.18-.18-.46-.48-.81-.9a16.88,16.88,0,0,1-4.1-10.79l.25-19.5v-.07l.25-19.57a16.56,16.56,0,0,1,3.75-9.93l-.12-.09Z" style="fill:#222"/><path d="M206.56,79.74l.07-.14c.05-.09.13-.23.22-.41.19-.35.45-.89.74-1.58a16.74,16.74,0,0,0,.83-2.58c.11-.51.22-1.06.29-1.64a17.58,17.58,0,0,0,.12-1.83c0-1.3,0-2.7,0-4.18s0-3,0-4.66c0-3.23.07-6.68.1-10.12s.11-6.9.16-10.13c0-1.61.06-3.18.09-4.66s.06-2.88.09-4.17c0-.65,0-1.27,0-1.85s-.06-1.14-.12-1.66a16.76,16.76,0,0,0-.58-2.64,16.32,16.32,0,0,0-.59-1.65c-.07-.19-.14-.33-.18-.42l-.06-.15.07.15.19.41a15.54,15.54,0,0,1,.65,1.63,17,17,0,0,1,.66,2.65,16.52,16.52,0,0,1,.17,1.67c0,.6,0,1.22,0,1.86,0,1.3,0,2.7,0,4.18s0,3,0,4.66c0,3.23-.07,6.68-.1,10.12s-.11,6.9-.16,10.13c0,1.61-.06,3.18-.09,4.66s-.06,2.88-.09,4.17a15.52,15.52,0,0,1-.16,1.86,14.53,14.53,0,0,1-.34,1.65,17.89,17.89,0,0,1-.9,2.57,17.49,17.49,0,0,1-.8,1.56l-.23.4Z" style="fill:#fff"/><path d="M211.59,31.93l.11-.06a2.58,2.58,0,0,1,.33-.16,2.76,2.76,0,0,1,1.36-.16,2.82,2.82,0,0,1,1,.3,2.53,2.53,0,0,1,.89.76,2.3,2.3,0,0,1,.31.58,2.48,2.48,0,0,1,.12.68c0,.47,0,1,0,1.47,0,2,0,4.42,0,7s-.06,5.28-.09,8-.08,5.44-.12,8-.09,4.93-.13,7-.09,3.75-.12,4.94-.05,1.87-.05,1.87V70.21c0-1.19,0-2.9,0-4.94s0-4.42.05-7,.06-5.27.08-8,.09-5.44.13-8,.09-4.93.13-7l0-1.47a2.25,2.25,0,0,0-.1-.64,2.1,2.1,0,0,0-.28-.56,2.3,2.3,0,0,0-.84-.75,2.46,2.46,0,0,0-.91-.31,2.75,2.75,0,0,0-1.36.12,1.9,1.9,0,0,0-.33.14Z" style="fill:#fff"/><path d="M214.52,72.07a1.87,1.87,0,0,1-3.72,0l.49-38.17a1.87,1.87,0,0,1,3.72,0Z" style="fill:#fff"/><path d="M213.84,71.92l-1.35,0a1.87,1.87,0,0,1,.15.32l.06.2H212l0-.1a.93.93,0,0,0-.17-.3.58.58,0,0,0-.26-.21l-.1,0V71.2l2.37,0Z" style="fill:#0073a8"/><path d="M213.9,70.27a.73.73,0,0,1-.17.49.78.78,0,0,1-.47.23l-.16,0,0-.38a.8.8,0,0,1-.15.17.76.76,0,0,1-.59.21.85.85,0,0,1-.61-.23.82.82,0,0,1-.23-.59.8.8,0,0,1,.31-.62,1.39,1.39,0,0,1,.9-.23,1.43,1.43,0,0,1,.91.26A.79.79,0,0,1,213.9,70.27Zm-.72,0a.11.11,0,0,0,.09,0s0,0,0-.05,0-.06-.05-.1l-.09,0a.4.4,0,0,1,0,.19v0Zm-1.07-.09a.08.08,0,0,0,0,.07.3.3,0,0,0,.19,0c.13,0,.18,0,.2,0a.1.1,0,0,0,0-.09s0,0,0-.08a.39.39,0,0,0-.18,0,.28.28,0,0,0-.2.06S212.11,70.21,212.11,70.23Z" style="fill:#0073a8"/><path d="M213.71,71.3v.4l-1.5,0a1.29,1.29,0,0,1,.3.52h-.36a1.18,1.18,0,0,0-.19-.34.67.67,0,0,0-.33-.25v-.33Z" style="fill:#fff"/><path d="M213.23,70.78l0-.39a.22.22,0,0,0,.17-.07.2.2,0,0,0,.06-.15.25.25,0,0,0-.11-.21.93.93,0,0,0-.47-.12.47.47,0,0,1,.17.38.59.59,0,0,1-.19.42.76.76,0,0,1-.5.17.69.69,0,0,1-.5-.2.62.62,0,0,1-.19-.48.63.63,0,0,1,.25-.51,1.7,1.7,0,0,1,1.62,0,.68.68,0,0,1,.25.55.56.56,0,0,1-.14.39A.6.6,0,0,1,213.23,70.78Zm-.85-.91a.51.51,0,0,0-.3.08.28.28,0,0,0-.11.21.25.25,0,0,0,.08.18.57.57,0,0,0,.58,0,.23.23,0,0,0,.1-.2.25.25,0,0,0-.09-.19A.4.4,0,0,0,212.38,69.87Z" style="fill:#fff"/><path d="M214.32,36.41l-1.35,0a1.22,1.22,0,0,1,.14.33l.06.19h-.66l0-.1a1.17,1.17,0,0,0-.17-.3.54.54,0,0,0-.26-.2l-.1,0v-.57l2.37,0Z" style="fill:#162623"/><path d="M214.34,35.23h-.15a2.59,2.59,0,0,1-.92-.2,2.8,2.8,0,0,1-.6-.3v.76H212l0-1.65h.49l.05,0a1.6,1.6,0,0,0,.43.33,2.89,2.89,0,0,0,.63.26,2.16,2.16,0,0,0,.58.09h.15Z" style="fill:#162623"/><path d="M214.16,35.81v.4l-1.5,0a1.32,1.32,0,0,1,.29.52h-.36a1,1,0,0,0-.19-.34.69.69,0,0,0-.32-.25v-.33Z" style="fill:#fff"/><path d="M212.49,35.28h-.37l0-1.36h.29a2.49,2.49,0,0,0,.47.35,2.55,2.55,0,0,0,.66.27,2.1,2.1,0,0,0,.62.1V35a2.76,2.76,0,0,1-.87-.18,3.15,3.15,0,0,1-.8-.46Z" style="fill:#fff"/><text transform="translate(213.87 68.15) rotate(-89.33)" style="font-size:2.8988099098205566px;fill:#0073a8;font-family:Poppins-Bold, Poppins;font-weight:700;letter-spacing:0.0299826705454378em">EXPERTS <tspan x="13.71" y="0" style="fill:#222">MECHANIC</tspan></text></svg>